STARTFONT 2.1
COMMENT KOI8-r version - Eugene Bobin
FONT -B&H-Lucida Sans-Medium-R-Normal-Sans-24-240-72-72-P-137-koi8-r
SIZE 24 72 72
FONTBOUNDINGBOX 30 25 -6 -5
STARTPROPERTIES 23
FONTNAME_REGISTRY "-"
FOUNDRY "B&H"
FAMILY_NAME "Lucida Sans"
WEIGHT_NAME "Medium"
SLANT "R"
SETWIDTH_NAME "Normal"
ADD_STYLE_NAME "Sans"
SPACING "P"
CHARSET_REGISTRY "koi8"
CHARSET_ENCODING "r"
PIXEL_SIZE 24
POINT_SIZE 240
RESOLUTION_X 72
RESOLUTION_Y 72
AVERAGE_WIDTH 137
FULL_NAME "LucidaSans"
WEIGHT 10
RESOLUTION 99
X_HEIGHT 13
QUAD_WIDTH 12
FONT_ASCENT 18
FONT_DESCENT 5
_XMBDFED_INFO "Edited with xmbdfed 2.0."
ENDPROPERTIES
CHARS 188
STARTCHAR char32
ENCODING 32
SWIDTH 333 0
DWIDTH 8 0
BBX 0 0 0 0
BITMAP
ENDCHAR
STARTCHAR char33
ENCODING 33
SWIDTH 333 0
DWIDTH 8 0
BBX 3 17 2 0
BITMAP
E0
E0
E0
E0
E0
E0
C0
C0
C0
C0
C0
C0
00
00
E0
E0
E0
ENDCHAR
STARTCHAR char34
ENCODING 34
SWIDTH 375 0
DWIDTH 9 0
BBX 7 7 1 11
BITMAP
EE
EE
EE
EE
CC
CC
CC
ENDCHAR
STARTCHAR char35
ENCODING 35
SWIDTH 625 0
DWIDTH 15 0
BBX 15 17 0 0
BITMAP
0318
0330
0330
0630
0630
7FFE
7FFE
0E60
0C60
0CC0
FFFC
FFFC
18C0
1980
1980
3180
3380
ENDCHAR
STARTCHAR char36
ENCODING 36
SWIDTH 625 0
DWIDTH 15 0
BBX 11 19 2 -1
BITMAP
0600
1FC0
3FE0
7620
6600
6600
7600
3E00
3E00
0F80
07C0
07E0
0660
0660
0660
C6C0
FF80
7F00
0600
ENDCHAR
STARTCHAR char37
ENCODING 37
SWIDTH 666 0
DWIDTH 16 0
BBX 16 17 0 0
BITMAP
3807
6C06
C60C
C618
C638
C670
6CE0
38C0
01BC
0366
07C3
0EC3
1CC3
18C3
30C3
6066
E03C
ENDCHAR
STARTCHAR char38
ENCODING 38
SWIDTH 708 0
DWIDTH 17 0
BBX 16 17 0 0
BITMAP
07C0
0FE0
1C70
1C70
1EF0
1FE0
1F80
3F87
7387
E1C7
E0E6
E0FE
E07C
F03C
7878
3FFC
0FCF
ENDCHAR
STARTCHAR char39
ENCODING 39
SWIDTH 333 0
DWIDTH 8 0
BBX 3 6 2 12
BITMAP
E0
E0
E0
60
60
C0
ENDCHAR
STARTCHAR char40
ENCODING 40
SWIDTH 333 0
DWIDTH 8 0
BBX 6 22 1 -4
BITMAP
04
0C
18
38
30
70
60
E0
E0
E0
E0
E0
E0
E0
E0
60
70
30
38
18
0C
04
ENDCHAR
STARTCHAR char41
ENCODING 41
SWIDTH 333 0
DWIDTH 8 0
BBX 6 22 1 -4
BITMAP
80
C0
60
70
30
38
18
1C
1C
1C
1C
1C
1C
1C
1C
18
38
30
70
60
C0
80
ENDCHAR
STARTCHAR char42
ENCODING 42
SWIDTH 500 0
DWIDTH 12 0
BBX 9 8 2 9
BITMAP
0800
0800
C980
F780
1400
1400
7600
2300
ENDCHAR
STARTCHAR char43
ENCODING 43
SWIDTH 625 0
DWIDTH 15 0
BBX 14 14 1 0
BITMAP
0300
0300
0300
0300
0300
0300
FFFC
FFFC
0300
0300
0300
0300
0300
0300
ENDCHAR
STARTCHAR char44
ENCODING 44
SWIDTH 333 0
DWIDTH 8 0
BBX 3 7 2 -4
BITMAP
E0
E0
E0
60
60
60
C0
ENDCHAR
STARTCHAR char45
ENCODING 45
SWIDTH 333 0
DWIDTH 8 0
BBX 5 2 1 6
BITMAP
F8
F8
ENDCHAR
STARTCHAR char46
ENCODING 46
SWIDTH 333 0
DWIDTH 8 0
BBX 3 3 2 0
BITMAP
E0
E0
E0
ENDCHAR
STARTCHAR char47
ENCODING 47
SWIDTH 500 0
DWIDTH 12 0
BBX 12 22 0 -4
BITMAP
0070
0060
00E0
00C0
00C0
0180
0180
0300
0300
0700
0600
0E00
0C00
0C00
1800
1800
3000
3000
7000
6000
6000
C000
ENDCHAR
STARTCHAR char48
ENCODING 48
SWIDTH 625 0
DWIDTH 15 0
BBX 13 17 1 0
BITMAP
0F80
1FC0
38E0
7070
7070
E038
E038
E038
E038
E038
E038
E038
7070
7070
38E0
1FC0
0F80
ENDCHAR
STARTCHAR char49
ENCODING 49
SWIDTH 625 0
DWIDTH 15 0
BBX 6 17 3 0
BITMAP
FC
FC
1C
1C
1C
1C
1C
1C
1C
1C
1C
1C
1C
1C
1C
1C
1C
ENDCHAR
STARTCHAR char50
ENCODING 50
SWIDTH 625 0
DWIDTH 15 0
BBX 11 17 2 0
BITMAP
3F00
FFC0
81C0
00E0
00E0
00E0
00E0
01C0
0380
0700
0E00
1800
3000
7000
E000
FFE0
FFE0
ENDCHAR
STARTCHAR char51
ENCODING 51
SWIDTH 625 0
DWIDTH 15 0
BBX 11 17 2 0
BITMAP
3F80
7FC0
41E0
00E0
00E0
00E0
03C0
3F00
3F80
03C0
00E0
00E0
00E0
00E0
83C0
FF80
7F00
ENDCHAR
STARTCHAR char52
ENCODING 52
SWIDTH 625 0
DWIDTH 15 0
BBX 13 17 1 0
BITMAP
00E0
01E0
03E0
03E0
0760
0E60
1C60
3860
7060
6060
FFF8
FFF8
00E0
00E0
00E0
00E0
00E0
ENDCHAR
STARTCHAR char53
ENCODING 53
SWIDTH 625 0
DWIDTH 15 0
BBX 9 17 3 0
BITMAP
FF80
FF80
C000
C000
C000
C000
F800
FE00
0F00
0780
0380
0380
0380
0380
8700
FE00
FC00
ENDCHAR
STARTCHAR char54
ENCODING 54
SWIDTH 625 0
DWIDTH 15 0
BBX 12 17 2 0
BITMAP
0FC0
1FE0
3820
7000
7000
E000
E780
FFE0
F0E0
E070
E070
E070
E070
7070
78E0
3FC0
0F80
ENDCHAR
STARTCHAR char55
ENCODING 55
SWIDTH 625 0
DWIDTH 15 0
BBX 11 17 3 0
BITMAP
FFE0
FFE0
FFE0
00E0
00C0
0180
0380
0300
0700
0E00
0E00
1C00
1C00
3800
3800
7000
7000
ENDCHAR
STARTCHAR char56
ENCODING 56
SWIDTH 625 0
DWIDTH 15 0
BBX 12 17 2 0
BITMAP
0F80
1FC0
38E0
3060
3060
3040
18C0
0480
0F80
3FE0
73E0
E0F0
E070
E070
F0E0
7FE0
1F80
ENDCHAR
STARTCHAR char57
ENCODING 57
SWIDTH 625 0
DWIDTH 15 0
BBX 12 17 2 0
BITMAP
1F00
3FC0
71E0
E0E0
E070
E070
E070
E070
70F0
3FF0
1E70
0070
00E0
00E0
41C0
7F80
7E00
ENDCHAR
STARTCHAR char58
ENCODING 58
SWIDTH 333 0
DWIDTH 8 0
BBX 3 13 2 0
BITMAP
E0
E0
E0
00
00
00
00
00
00
00
E0
E0
E0
ENDCHAR
STARTCHAR char59
ENCODING 59
SWIDTH 333 0
DWIDTH 8 0
BBX 3 17 2 -4
BITMAP
E0
E0
E0
00
00
00
00
00
00
00
00
E0
E0
60
60
40
80
ENDCHAR
STARTCHAR char60
ENCODING 60
SWIDTH 625 0
DWIDTH 15 0
BBX 14 14 1 0
BITMAP
0004
001C
0078
01E0
0780
1E00
F800
7800
1E00
0780
01E0
0078
001C
0004
ENDCHAR
STARTCHAR char61
ENCODING 61
SWIDTH 625 0
DWIDTH 15 0
BBX 14 6 1 4
BITMAP
FFFC
FFFC
0000
0000
FFFC
FFFC
ENDCHAR
STARTCHAR char62
ENCODING 62
SWIDTH 625 0
DWIDTH 15 0
BBX 14 14 1 0
BITMAP
8000
E000
7800
1E00
0780
01E0
0078
007C
01E0
0780
1E00
7800
E000
8000
ENDCHAR
STARTCHAR char63
ENCODING 63
SWIDTH 416 0
DWIDTH 10 0
BBX 9 17 1 0
BITMAP
7E00
FF00
8780
0380
0380
0300
0700
0E00
1C00
3800
3800
3800
0000
0000
3800
3800
3800
ENDCHAR
STARTCHAR char64
ENCODING 64
SWIDTH 875 0
DWIDTH 21 0
BBX 18 17 1 0
BITMAP
00FC00
070600
0C0100
100080
21F840
623840
443040
C43040
887040
88E080
88E180
896300
867C00
400000
600000
382000
0FC000
ENDCHAR
STARTCHAR char65
ENCODING 65
SWIDTH 708 0
DWIDTH 17 0
BBX 16 17 0 0
BITMAP
03C0
03C0
03E0
07E0
07E0
0E70
0E70
0C78
1C38
1838
3FFC
3FFC
301E
700E
600E
E007
E007
ENDCHAR
STARTCHAR char66
ENCODING 66
SWIDTH 583 0
DWIDTH 14 0
BBX 11 17 2 0
BITMAP
FF00
FF80
E3C0
E1C0
E1C0
E1C0
E380
FF00
FF00
E3C0
E1C0
E0E0
E0E0
E0E0
E1E0
FFC0
FF00
ENDCHAR
STARTCHAR char67
ENCODING 67
SWIDTH 708 0
DWIDTH 17 0
BBX 14 17 1 0
BITMAP
07F8
1FFC
3C0C
7800
7000
E000
E000
E000
E000
E000
E000
F000
7000
7804
3C0C
1FFC
07F0
ENDCHAR
STARTCHAR char68
ENCODING 68
SWIDTH 750 0
DWIDTH 18 0
BBX 15 17 2 0
BITMAP
FFC0
FFF0
E078
E03C
E01C
E00E
E00E
E00E
E00E
E00E
E00E
E00E
E01C
E03C
E078
FFF0
FF80
ENDCHAR
STARTCHAR char69
ENCODING 69
SWIDTH 541 0
DWIDTH 13 0
BBX 11 17 2 0
BITMAP
FFC0
FFC0
E000
E000
E000
E000
E000
FF80
FF80
E000
E000
E000
E000
E000
E000
FFE0
FFE0
ENDCHAR
STARTCHAR char70
ENCODING 70
SWIDTH 541 0
DWIDTH 13 0
BBX 10 17 2 0
BITMAP
FFC0
FFC0
E000
E000
E000
E000
E000
FF80
FF80
E000
E000
E000
E000
E000
E000
E000
E000
ENDCHAR
STARTCHAR char71
ENCODING 71
SWIDTH 708 0
DWIDTH 17 0
BBX 15 17 1 0
BITMAP
03FC
1FFE
3C06
7800
7000
F000
E000
E000
E000
E00E
E00E
F00E
700E
780E
3E0E
1FFE
07F8
ENDCHAR
STARTCHAR char72
ENCODING 72
SWIDTH 750 0
DWIDTH 18 0
BBX 14 17 2 0
BITMAP
E01C
E01C
E01C
E01C
E01C
E01C
E01C
FFFC
FFFC
E01C
E01C
E01C
E01C
E01C
E01C
E01C
E01C
ENDCHAR
STARTCHAR char73
ENCODING 73
SWIDTH 291 0
DWIDTH 7 0
BBX 3 17 2 0
BITMAP
E0
E0
E0
E0
E0
E0
E0
E0
E0
E0
E0
E0
E0
E0
E0
E0
E0
ENDCHAR
STARTCHAR char74
ENCODING 74
SWIDTH 291 0
DWIDTH 7 0
BBX 8 21 -1 -4
BITMAP
07
07
07
07
07
07
07
07
07
07
07
07
07
07
07
07
07
07
0E
FE
F8
ENDCHAR
STARTCHAR char75
ENCODING 75
SWIDTH 666 0
DWIDTH 16 0
BBX 14 17 2 0
BITMAP
E038
E070
E0E0
E1C0
E380
E300
E700
EE00
FC00
FE00
EF00
E780
E3C0
E1E0
E0F0
E078
E03C
ENDCHAR
STARTCHAR char76
ENCODING 76
SWIDTH 541 0
DWIDTH 13 0
BBX 11 17 2 0
BITMAP
E000
E000
E000
E000
E000
E000
E000
E000
E000
E000
E000
E000
E000
E000
E000
FFE0
FFE0
ENDCHAR
STARTCHAR char77
ENCODING 77
SWIDTH 875 0
DWIDTH 21 0
BBX 17 17 2 0
BITMAP
F00780
F00780
F80F80
F80F80
D80F80
DC1B80
DC1B80
CE3B80
CE3380
CE3380
C77380
C76380
C7E380
C3C380
C3C380
C1C380
C00380
ENDCHAR
STARTCHAR char78
ENCODING 78
SWIDTH 750 0
DWIDTH 18 0
BBX 13 17 2 0
BITMAP
E018
F018
F018
F818
FC18
DC18
DE18
CF18
C718
C798
C3D8
C1D8
C1F8
C0F8
C078
C078
C038
ENDCHAR
STARTCHAR char79
ENCODING 79
SWIDTH 791 0
DWIDTH 19 0
BBX 17 17 1 0
BITMAP
07F000
1FFC00
3C1E00
780F00
700700
E00380
E00380
E00380
E00380
E00380
E00380
E00380
700700
780F00
3C1E00
1FFC00
07F000
ENDCHAR
STARTCHAR char80
ENCODING 80
SWIDTH 541 0
DWIDTH 13 0
BBX 11 17 2 0
BITMAP
FF80
FFC0
E1E0
E0E0
E0E0
E0E0
E1E0
E3C0
FF80
FE00
E000
E000
E000
E000
E000
E000
E000
ENDCHAR
STARTCHAR char81
ENCODING 81
SWIDTH 791 0
DWIDTH 19 0
BBX 19 21 1 -4
BITMAP
07F000
1FFC00
3C1E00
780F00
700700
E00380
E00380
E00380
E00380
E00380
E00380
E00380
700700
780F00
3C1E00
1FFC00
07FE00
001FC0
000FE0
0003C0
0000C0
ENDCHAR
STARTCHAR char82
ENCODING 82
SWIDTH 625 0
DWIDTH 15 0
BBX 13 17 2 0
BITMAP
FF80
FFC0
E1E0
E0E0
E0E0
E0E0
E0E0
E3C0
FF80
FF00
E780
E3C0
E1C0
E0E0
E0F0
E070
E038
ENDCHAR
STARTCHAR char83
ENCODING 83
SWIDTH 541 0
DWIDTH 13 0
BBX 11 17 1 0
BITMAP
1F80
7FC0
F040
E000
E000
F000
7800
7E00
1F80
07C0
03E0
00E0
00E0
00E0
C1C0
FFC0
7F00
ENDCHAR
STARTCHAR char84
ENCODING 84
SWIDTH 625 0
DWIDTH 15 0
BBX 15 17 0 0
BITMAP
FFFE
FFFE
0380
0380
0380
0380
0380
0380
0380
0380
0380
0380
0380
0380
0380
0380
0380
ENDCHAR
STARTCHAR char85
ENCODING 85
SWIDTH 708 0
DWIDTH 17 0
BBX 13 17 2 0
BITMAP
E038
E038
E038
E038
E038
E038
E038
E038
E038
E038
E038
E038
E038
F038
7870
3FE0
1FC0
ENDCHAR
STARTCHAR char86
ENCODING 86
SWIDTH 666 0
DWIDTH 16 0
BBX 15 17 0 0
BITMAP
E006
E00E
700C
700C
701C
3818
3838
1C38
1C30
1C70
0E60
0E60
07E0
07C0
07C0
03C0
0380
ENDCHAR
STARTCHAR char87
ENCODING 87
SWIDTH 875 0
DWIDTH 21 0
BBX 21 17 0 0
BITMAP
E07038
E07030
E0F030
70F870
70F860
70F860
31F8E0
399CC0
399CC0
399CC0
1B9DC0
1F0D80
1F0F80
1F0F80
0F0F00
0E0700
0E0700
ENDCHAR
STARTCHAR char88
ENCODING 88
SWIDTH 625 0
DWIDTH 15 0
BBX 15 17 0 0
BITMAP
F01C
7818
7838
3C70
1C60
1EE0
0FC0
0780
0780
07C0
0FC0
0DE0
18F0
3870
7078
603C
E01E
ENDCHAR
STARTCHAR char89
ENCODING 89
SWIDTH 625 0
DWIDTH 15 0
BBX 15 17 0 0
BITMAP
F00E
700C
781C
3838
3C30
1C70
0EE0
0FE0
07C0
0780
0380
0380
0380
0380
0380
0380
0380
ENDCHAR
STARTCHAR char90
ENCODING 90
SWIDTH 625 0
DWIDTH 15 0
BBX 13 17 1 0
BITMAP
7FF8
7FF8
0078
00F0
00E0
01E0
03C0
0780
0700
0F00
1E00
3C00
3800
7800
F000
FFF8
FFF8
ENDCHAR
STARTCHAR char91
ENCODING 91
SWIDTH 333 0
DWIDTH 8 0
BBX 6 22 2 -4
BITMAP
FC
FC
C0
C0
C0
C0
C0
C0
C0
C0
C0
C0
C0
C0
C0
C0
C0
C0
C0
C0
FC
FC
ENDCHAR
STARTCHAR char92
ENCODING 92
SWIDTH 500 0
DWIDTH 12 0
BBX 12 22 0 -4
BITMAP
C000
6000
6000
7000
3000
3000
1800
1800
0C00
0C00
0E00
0600
0700
0300
0300
0180
0180
00C0
00C0
00E0
0060
0070
ENDCHAR
STARTCHAR char93
ENCODING 93
SWIDTH 333 0
DWIDTH 8 0
BBX 6 22 0 -4
BITMAP
FC
FC
0C
0C
0C
0C
0C
0C
0C
0C
0C
0C
0C
0C
0C
0C
0C
0C
0C
0C
FC
FC
ENDCHAR
STARTCHAR char94
ENCODING 94
SWIDTH 625 0
DWIDTH 15 0
BBX 14 14 1 3
BITMAP
0100
0300
0300
0780
0780
0CC0
0CC0
1860
1860
3030
3030
6018
6018
C00C
ENDCHAR
STARTCHAR char95
ENCODING 95
SWIDTH 500 0
DWIDTH 12 0
BBX 10 2 1 -2
BITMAP
FFC0
FFC0
ENDCHAR
STARTCHAR char96
ENCODING 96
SWIDTH 333 0
DWIDTH 8 0
BBX 3 7 2 11
BITMAP
20
40
C0
C0
E0
E0
E0
ENDCHAR
STARTCHAR char97
ENCODING 97
SWIDTH 541 0
DWIDTH 13 0
BBX 12 13 1 0
BITMAP
3F00
7F80
41C0
01C0
01C0
1FC0
7FC0
F1C0
E1C0
E1C0
E3C0
7EF0
3C70
ENDCHAR
STARTCHAR char98
ENCODING 98
SWIDTH 625 0
DWIDTH 15 0
BBX 12 18 2 0
BITMAP
E000
E000
E000
E000
E000
E780
EFE0
F8E0
E070
E070
E070
E070
E070
E070
E0E0
F0E0
FFC0
C780
ENDCHAR
STARTCHAR char99
ENCODING 99
SWIDTH 500 0
DWIDTH 12 0
BBX 10 13 1 0
BITMAP
0FC0
3FC0
7840
7000
E000
E000
E000
E000
E000
7000
7840
3FC0
0F80
ENDCHAR
STARTCHAR char100
ENCODING 100
SWIDTH 625 0
DWIDTH 15 0
BBX 12 18 1 0
BITMAP
0070
0070
0070
0070
0070
1E70
3FF0
70F0
7070
E070
E070
E070
E070
E070
E070
71F0
7FF0
1E70
ENDCHAR
STARTCHAR char101
ENCODING 101
SWIDTH 541 0
DWIDTH 13 0
BBX 11 13 1 0
BITMAP
1F00
3FC0
71C0
60E0
E0E0
FFE0
FFE0
E000
E000
7000
7820
3FE0
0FC0
ENDCHAR
STARTCHAR char102
ENCODING 102
SWIDTH 375 0
DWIDTH 9 0
BBX 9 18 1 0
BITMAP
0F80
1F80
3800
3800
3800
FF00
FF00
3800
3800
3800
3800
3800
3800
3800
3800
3800
3800
3800
ENDCHAR
STARTCHAR char103
ENCODING 103
SWIDTH 625 0
DWIDTH 15 0
BBX 12 18 1 -5
BITMAP
1F70
3FF0
78F0
7070
E070
E070
E070
E070
E070
E0F0
71F0
7F70
1E70
0070
00E0
41E0
7FC0
3F80
ENDCHAR
STARTCHAR char104
ENCODING 104
SWIDTH 625 0
DWIDTH 15 0
BBX 11 18 2 0
BITMAP
E000
E000
E000
E000
E000
E780
EFC0
F8E0
F0E0
E0E0
E0E0
E0E0
E0E0
E0E0
E0E0
E0E0
E0E0
E0E0
ENDCHAR
STARTCHAR char105
ENCODING 105
SWIDTH 291 0
DWIDTH 7 0
BBX 3 17 2 0
BITMAP
E0
E0
E0
00
E0
E0
E0
E0
E0
E0
E0
E0
E0
E0
E0
E0
E0
ENDCHAR
STARTCHAR char106
ENCODING 106
SWIDTH 291 0
DWIDTH 7 0
BBX 7 22 -1 -5
BITMAP
0E
0E
0E
00
0E
0E
0E
0E
0E
0E
0E
0E
0E
0E
0E
0E
0E
0E
0E
8E
FC
78
ENDCHAR
STARTCHAR char107
ENCODING 107
SWIDTH 583 0
DWIDTH 14 0
BBX 12 18 2 0
BITMAP
E000
E000
E000
E000
E000
E0E0
E1C0
E380
E700
EE00
FC00
FE00
EE00
E700
E380
E1C0
E0E0
E0F0
ENDCHAR
STARTCHAR char108
ENCODING 108
SWIDTH 291 0
DWIDTH 7 0
BBX 3 18 2 0
BITMAP
E0
E0
E0
E0
E0
E0
E0
E0
E0
E0
E0
E0
E0
E0
E0
E0
E0
E0
ENDCHAR
STARTCHAR char109
ENCODING 109
SWIDTH 916 0
DWIDTH 22 0
BBX 19 13 2 0
BITMAP
E7C780
FFFFC0
F8F8E0
F0F0E0
E0E0E0
E0E0E0
E0E0E0
E0E0E0
E0E0E0
E0E0E0
E0E0E0
E0E0E0
E0E0E0
ENDCHAR
STARTCHAR char110
ENCODING 110
SWIDTH 625 0
DWIDTH 15 0
BBX 11 13 2 0
BITMAP
E780
EFC0
F8E0
F0E0
E0E0
E0E0
E0E0
E0E0
E0E0
E0E0
E0E0
E0E0
E0E0
ENDCHAR
STARTCHAR char111
ENCODING 111
SWIDTH 625 0
DWIDTH 15 0
BBX 13 13 1 0
BITMAP
0F80
3FE0
78F0
7070
E038
E038
E038
E038
E038
7070
78F0
3FE0
0F80
ENDCHAR
STARTCHAR char112
ENCODING 112
SWIDTH 625 0
DWIDTH 15 0
BBX 12 18 2 -5
BITMAP
E780
FFE0
F8E0
E070
E070
E070
E070
E070
E070
E0E0
F0E0
FFC0
E780
E000
E000
E000
E000
E000
ENDCHAR
STARTCHAR char113
ENCODING 113
SWIDTH 625 0
DWIDTH 15 0
BBX 12 18 1 -5
BITMAP
1F70
3FF0
70F0
7070
E070
E070
E070
E070
E070
E070
71F0
7F70
1E70
0070
0070
0070
0070
0070
ENDCHAR
STARTCHAR char114
ENCODING 114
SWIDTH 416 0
DWIDTH 10 0
BBX 8 13 2 0
BITMAP
E7
FF
F8
F0
E0
E0
E0
E0
E0
E0
E0
E0
E0
ENDCHAR
STARTCHAR char115
ENCODING 115
SWIDTH 500 0
DWIDTH 12 0
BBX 9 13 2 0
BITMAP
3F00
7F00
E100
E000
F000
7C00
3F00
0F80
0380
0380
8780
FF00
7E00
ENDCHAR
STARTCHAR char116
ENCODING 116
SWIDTH 375 0
DWIDTH 9 0
BBX 8 16 0 0
BITMAP
18
38
38
FF
FF
38
38
38
38
38
38
38
38
3C
1F
0F
ENDCHAR
STARTCHAR char117
ENCODING 117
SWIDTH 625 0
DWIDTH 15 0
BBX 11 13 2 0
BITMAP
E0E0
E0E0
E0E0
E0E0
E0E0
E0E0
E0E0
E0E0
E0E0
E1E0
E3E0
7EE0
3CE0
ENDCHAR
STARTCHAR char118
ENCODING 118
SWIDTH 500 0
DWIDTH 12 0
BBX 12 13 0 0
BITMAP
E030
E070
6060
70E0
70C0
30C0
39C0
1980
1F80
1F80
0F00
0F00
0E00
ENDCHAR
STARTCHAR char119
ENCODING 119
SWIDTH 750 0
DWIDTH 18 0
BBX 18 13 0 0
BITMAP
E0E0C0
E1E0C0
61E1C0
61E180
71F180
733380
333300
3B3300
3E3F00
3E1E00
1E1E00
1E1E00
1C1C00
ENDCHAR
STARTCHAR char120
ENCODING 120
SWIDTH 625 0
DWIDTH 15 0
BBX 13 13 1 0
BITMAP
E070
7060
38E0
1DC0
1D80
0F80
0700
0F80
1F80
39C0
30E0
7070
E078
ENDCHAR
STARTCHAR char121
ENCODING 121
SWIDTH 541 0
DWIDTH 13 0
BBX 12 18 0 -5
BITMAP
E030
E070
7060
7060
70E0
38C0
39C0
1980
1D80
1F80
0F00
0F00
0E00
0600
0E00
0C00
1C00
1C00
ENDCHAR
STARTCHAR char122
ENCODING 122
SWIDTH 583 0
DWIDTH 14 0
BBX 11 13 1 0
BITMAP
FFE0
FFE0
01E0
03C0
0380
0700
0E00
1C00
3800
7800
F000
FFE0
FFE0
ENDCHAR
STARTCHAR char123
ENCODING 123
SWIDTH 333 0
DWIDTH 8 0
BBX 7 22 0 -4
BITMAP
06
1E
3E
38
30
30
30
30
30
30
F0
E0
30
30
30
30
30
30
30
38
1E
0E
ENDCHAR
STARTCHAR char124
ENCODING 124
SWIDTH 250 0
DWIDTH 6 0
BBX 2 22 2 -4
BITMAP
C0
C0
C0
C0
C0
C0
C0
C0
C0
C0
C0
C0
C0
C0
C0
C0
C0
C0
C0
C0
C0
C0
ENDCHAR
STARTCHAR char125
ENCODING 125
SWIDTH 333 0
DWIDTH 8 0
BBX 7 22 1 -4
BITMAP
C0
F0
F8
38
18
18
18
18
18
18
1E
0E
18
18
18
18
18
18
18
38
F0
E0
ENDCHAR
STARTCHAR char126
ENCODING 126
SWIDTH 625 0
DWIDTH 15 0
BBX 14 4 1 5
BITMAP
3C0C
7F1C
C7F8
C0F8
ENDCHAR
STARTCHAR char161
ENCODING 161
SWIDTH 333 0
DWIDTH 8 0
BBX 3 18 2 -5
BITMAP
E0
E0
E0
00
00
C0
C0
C0
C0
C0
C0
C0
E0
E0
E0
E0
E0
E0
ENDCHAR
STARTCHAR char162
ENCODING 162
SWIDTH 625 0
DWIDTH 15 0
BBX 10 17 2 0
BITMAP
0600
0600
1FC0
3FC0
7640
6600
E600
E600
E600
E600
E600
7600
7640
3FC0
0F80
0600
0600
ENDCHAR
STARTCHAR char163
ENCODING 163
SWIDTH 625 0
DWIDTH 15 0
BBX 10 17 3 0
BITMAP
0FC0
1FC0
3C40
3800
3800
3800
3800
FF00
FF00
3800
3800
3800
3800
3000
7000
FFC0
FFC0
ENDCHAR
STARTCHAR char164
ENCODING 164
SWIDTH 41 0
DWIDTH 1 0
BBX 15 17 -6 0
BITMAP
000E
001C
0018
0038
0070
00E0
00C0
01C0
0380
0700
0600
0E00
1C00
3800
3000
7000
E000
ENDCHAR
STARTCHAR char165
ENCODING 165
SWIDTH 625 0
DWIDTH 15 0
BBX 14 17 1 0
BITMAP
E01C
7018
3830
3870
1CE0
1FC0
0F80
0780
3FE0
3FE0
0700
3FE0
3FE0
0700
0700
0700
0700
ENDCHAR
STARTCHAR char166
ENCODING 166
SWIDTH 625 0
DWIDTH 15 0
BBX 11 21 3 -4
BITMAP
03E0
07E0
0E00
1C00
1800
3800
3800
3800
FE00
FE00
3800
3800
3800
7000
7000
7000
7000
7000
E000
E000
E000
ENDCHAR
STARTCHAR char167
ENCODING 167
SWIDTH 625 0
DWIDTH 15 0
BBX 10 21 3 -4
BITMAP
1F80
7FC0
E040
C000
C000
E000
3C00
7F00
CF80
C3C0
C0C0
F0C0
7CC0
3F80
0F80
01C0
00C0
00C0
C1C0
FF80
7E00
ENDCHAR
STARTCHAR char168
ENCODING 168
SWIDTH 625 0
DWIDTH 15 0
BBX 15 14 0 2
BITMAP
4004
E00E
77DC
3FF8
1C70
3018
3018
3018
3018
1C70
3FF8
77DC
E00E
4004
ENDCHAR
STARTCHAR char169
ENCODING 169
SWIDTH 208 0
DWIDTH 5 0
BBX 3 6 1 12
BITMAP
E0
E0
E0
C0
C0
C0
ENDCHAR
STARTCHAR char170
ENCODING 170
SWIDTH 375 0
DWIDTH 9 0
BBX 7 7 1 11
BITMAP
22
44
CC
CC
EE
EE
EE
ENDCHAR
STARTCHAR char171
ENCODING 171
SWIDTH 541 0
DWIDTH 13 0
BBX 9 11 2 1
BITMAP
1980
1980
3300
7700
EE00
CC00
EE00
7700
3300
1980
1980
ENDCHAR
STARTCHAR char172
ENCODING 172
SWIDTH 333 0
DWIDTH 8 0
BBX 5 11 2 1
BITMAP
18
18
30
70
E0
C0
E0
70
30
18
18
ENDCHAR
STARTCHAR char173
ENCODING 173
SWIDTH 333 0
DWIDTH 8 0
BBX 5 11 1 1
BITMAP
C0
C0
60
70
38
18
38
70
60
C0
C0
ENDCHAR
STARTCHAR char174
ENCODING 174
SWIDTH 625 0
DWIDTH 15 0
BBX 13 18 1 0
BITMAP
0F80
1FB8
3838
3838
3800
FFF8
FFF8
3838
3838
3838
3838
3838
3838
3838
3838
3838
3838
3838
ENDCHAR
STARTCHAR char175
ENCODING 175
SWIDTH 666 0
DWIDTH 16 0
BBX 13 18 1 0
BITMAP
0FF8
1FF8
3838
3838
3838
FF38
FF38
3838
3838
3838
3838
3838
3838
3838
3838
3838
3838
3838
ENDCHAR
STARTCHAR char235
ENCODING 176
SWIDTH 416 0
DWIDTH 10 0
BBX 9 10 1 7
BITMAP
3E00
7700
E380
E380
E380
E380
E380
E380
7700
3E00
ENDCHAR
STARTCHAR char177
ENCODING 177
SWIDTH 500 0
DWIDTH 12 0
BBX 10 2 1 6
BITMAP
FFC0
FFC0
ENDCHAR
STARTCHAR char178
ENCODING 178
SWIDTH 625 0
DWIDTH 15 0
BBX 11 21 2 -4
BITMAP
0E00
0E00
0E00
0C00
0C00
0C00
FFE0
FFE0
0C00
0C00
0C00
0C00
0C00
0C00
0C00
0E00
0E00
0E00
0E00
0E00
0E00
ENDCHAR
STARTCHAR char179
ENCODING 179
SWIDTH 625 0
DWIDTH 15 0
BBX 11 21 2 -4
BITMAP
0E00
0E00
0E00
0C00
0C00
0C00
FFE0
FFE0
0C00
0C00
0C00
0C00
0C00
FFE0
FFE0
0C00
0C00
0C00
0E00
0E00
0E00
ENDCHAR
STARTCHAR char180
ENCODING 180
SWIDTH 625 0
DWIDTH 15 0
BBX 3 3 6 5
BITMAP
E0
E0
E0
ENDCHAR
STARTCHAR char182
ENCODING 182
SWIDTH 625 0
DWIDTH 15 0
BBX 10 21 2 -4
BITMAP
3FC0
7FC0
FEC0
FEC0
FEC0
FEC0
FEC0
7EC0
1EC0
06C0
06C0
06C0
06C0
06C0
06C0
06C0
06C0
06C0
06C0
06C0
06C0
ENDCHAR
STARTCHAR char183
ENCODING 183
SWIDTH 625 0
DWIDTH 15 0
BBX 8 8 4 3
BITMAP
FF
FF
FF
FF
FF
FF
FF
FF
ENDCHAR
STARTCHAR char184
ENCODING 184
SWIDTH 333 0
DWIDTH 8 0
BBX 3 7 2 -4
BITMAP
E0
E0
E0
60
60
60
C0
ENDCHAR
STARTCHAR char185
ENCODING 185
SWIDTH 375 0
DWIDTH 9 0
BBX 7 7 1 -4
BITMAP
EE
EE
EE
66
66
44
88
ENDCHAR
STARTCHAR char186
ENCODING 186
SWIDTH 375 0
DWIDTH 9 0
BBX 7 7 1 11
BITMAP
EE
EE
EE
66
66
44
88
ENDCHAR
STARTCHAR char187
ENCODING 187
SWIDTH 541 0
DWIDTH 13 0
BBX 9 11 2 1
BITMAP
CC00
CC00
6600
7700
3B80
1980
3B80
7700
6600
CC00
CC00
ENDCHAR
STARTCHAR char188
ENCODING 188
SWIDTH 1000 0
DWIDTH 24 0
BBX 19 3 3 0
BITMAP
E0E0E0
E0E0E0
E0E0E0
ENDCHAR
STARTCHAR char189
ENCODING 189
SWIDTH 1000 0
DWIDTH 24 0
BBX 24 17 0 0
BITMAP
380700
6C0600
C60C00
C61800
C63800
C67000
6CE000
38C000
01BC1C
036636
07C363
0EC363
1CC363
18C363
30C363
606636
E03C1C
ENDCHAR
STARTCHAR char191
ENCODING 191
SWIDTH 416 0
DWIDTH 10 0
BBX 9 18 1 -5
BITMAP
0E00
0E00
0E00
0000
0000
0E00
0E00
0E00
0C00
1800
3800
7000
E000
E000
E000
F080
7F80
3F00
ENDCHAR
STARTCHAR char111
ENCODING 192
SWIDTH 708 0
DWIDTH 17 0
BBX 16 13 1 0
BITMAP
E0F0
E3FC
E79E
E70E
EE07
EE07
FE07
FE07
EE07
E70E
E79E
E3FC
E0F0
ENDCHAR
STARTCHAR char97
ENCODING 193
SWIDTH 541 0
DWIDTH 13 0
BBX 12 13 1 0
BITMAP
3F00
7F80
41C0
01C0
01C0
1FC0
7FC0
F1C0
E1C0
E1C0
E3C0
7EF0
3C70
ENDCHAR
STARTCHAR char98
ENCODING 194
SWIDTH 625 0
DWIDTH 15 0
BBX 12 18 2 0
BITMAP
3FC0
7FE0
78E0
7000
3800
3F80
7FE0
70E0
E070
E070
E070
E070
E070
E070
70E0
70E0
3FC0
1F80
ENDCHAR
STARTCHAR char117
ENCODING 195
SWIDTH 625 0
DWIDTH 15 0
BBX 13 15 2 -2
BITMAP
E0E0
E0E0
E0E0
E0E0
E0E0
E0E0
E0E0
E0E0
E0E0
E1E0
E3E0
7EF8
3CF8
0038
0038
ENDCHAR
STARTCHAR char118
ENCODING 196
SWIDTH 666 0
DWIDTH 16 0
BBX 16 15 0 -2
BITMAP
0380
03C0
03C0
07E0
07E0
0660
0E70
0C30
1C30
1C38
1818
FFFF
FFFF
E007
C003
ENDCHAR
STARTCHAR char101
ENCODING 197
SWIDTH 541 0
DWIDTH 13 0
BBX 11 13 1 0
BITMAP
1F00
3FC0
71C0
60E0
E0E0
FFE0
FFE0
E000
E000
7000
7820
3FE0
0FC0
ENDCHAR
STARTCHAR char111
ENCODING 198
SWIDTH 708 0
DWIDTH 17 0
BBX 15 20 1 -4
BITMAP
0380
0380
0380
0FE0
3FF8
7BBC
739C
E38E
E38E
E38E
E38E
E38E
739C
7BBC
3FF8
0FE0
0380
0380
0380
0380
ENDCHAR
STARTCHAR char110
ENCODING 199
SWIDTH 541 0
DWIDTH 13 0
BBX 11 13 2 0
BITMAP
FFE0
FFE0
E000
E000
E000
E000
E000
E000
E000
E000
E000
E000
E000
ENDCHAR
STARTCHAR char120
ENCODING 200
SWIDTH 625 0
DWIDTH 15 0
BBX 13 13 1 0
BITMAP
E070
7060
38E0
1DC0
1D80
0F80
0700
0F80
1F80
39C0
30E0
7070
E078
ENDCHAR
STARTCHAR char117
ENCODING 201
SWIDTH 625 0
DWIDTH 15 0
BBX 11 13 2 0
BITMAP
E0E0
E0E0
E0E0
E0E0
E0E0
E0E0
E0E0
E0E0
E0E0
E1E0
E3E0
7EE0
3CE0
ENDCHAR
STARTCHAR char117
ENCODING 202
SWIDTH 625 0
DWIDTH 15 0
BBX 11 16 2 0
BITMAP
1B00
0E00
0400
E0E0
E0E0
E0E0
E0E0
E0E0
E0E0
E0E0
E0E0
E0E0
E1E0
E3E0
7EE0
3CE0
ENDCHAR
STARTCHAR char107
ENCODING 203
SWIDTH 583 0
DWIDTH 14 0
BBX 12 13 2 0
BITMAP
E0E0
E1C0
E380
E700
EE00
FC00
FE00
EE00
E700
E380
E1C0
E0E0
E0F0
ENDCHAR
STARTCHAR char118
ENCODING 204
SWIDTH 500 0
DWIDTH 12 0
BBX 12 13 0 0
BITMAP
0E00
0F00
0F00
1F80
1F80
1980
39C0
30C0
70C0
70E0
6060
E070
E030
ENDCHAR
STARTCHAR char109
ENCODING 205
SWIDTH 833 0
DWIDTH 20 0
BBX 17 13 2 0
BITMAP
F00780
F80780
F80F80
FC0F80
FC1B80
EE1B80
EE3380
E73380
E7F380
E3E380
E3E380
E1C380
E1C380
ENDCHAR
STARTCHAR char110
ENCODING 206
SWIDTH 625 0
DWIDTH 15 0
BBX 11 13 2 0
BITMAP
E0E0
E0E0
E0E0
E0E0
E0E0
FFE0
FFE0
E0E0
E0E0
E0E0
E0E0
E0E0
E0E0
ENDCHAR
STARTCHAR char111
ENCODING 207
SWIDTH 625 0
DWIDTH 15 0
BBX 13 13 1 0
BITMAP
0F80
3FE0
78F0
7070
E038
E038
E038
E038
E038
7070
78F0
3FE0
0F80
ENDCHAR
STARTCHAR char110
ENCODING 208
SWIDTH 625 0
DWIDTH 15 0
BBX 11 13 2 0
BITMAP
FFE0
FFE0
E0E0
E0E0
E0E0
E0E0
E0E0
E0E0
E0E0
E0E0
E0E0
E0E0
E0E0
ENDCHAR
STARTCHAR char107
ENCODING 209
SWIDTH 583 0
DWIDTH 14 0
BBX 12 13 2 0
BITMAP
1FF0
3FF0
7070
6070
6070
7070
3FF0
1FF0
0E70
1C70
3870
7070
F070
ENDCHAR
STARTCHAR char112
ENCODING 210
SWIDTH 625 0
DWIDTH 15 0
BBX 12 18 2 -5
BITMAP
E780
FFE0
F8E0
E070
E070
E070
E070
E070
E070
E0E0
F0E0
FFC0
E780
E000
E000
E000
E000
E000
ENDCHAR
STARTCHAR char99
ENCODING 211
SWIDTH 500 0
DWIDTH 12 0
BBX 10 13 1 0
BITMAP
0FC0
3FC0
7840
7000
E000
E000
E000
E000
E000
7000
7840
3FC0
0F80
ENDCHAR
STARTCHAR char109
ENCODING 212
SWIDTH 916 0
DWIDTH 22 0
BBX 19 13 2 0
BITMAP
E7C780
FFFFC0
F8F8E0
F0F0E0
E0E0E0
E0E0E0
E0E0E0
E0E0E0
E0E0E0
E0E0E0
E0E0E0
E0E0E0
E0E0E0
ENDCHAR
STARTCHAR char121
ENCODING 213
SWIDTH 541 0
DWIDTH 13 0
BBX 12 18 0 -5
BITMAP
E030
E070
7060
7060
70E0
38C0
39C0
1980
1D80
1F80
0F00
0F00
0E00
0600
0E00
0C00
1C00
1C00
ENDCHAR
STARTCHAR char120
ENCODING 214
SWIDTH 750 0
DWIDTH 18 0
BBX 16 13 1 0
BITMAP
E38E
738C
3B9C
1FB8
1FB0
0FF0
07E0
0FF0
1FF0
3BB8
339C
738E
E38F
ENDCHAR
STARTCHAR char98
ENCODING 215
SWIDTH 625 0
DWIDTH 15 0
BBX 12 18 2 0
BITMAP
3F00
7F80
F1C0
E1C0
E1C0
E3C0
E780
E780
EFE0
F8E0
E070
E070
E070
E070
E0E0
F0E0
7FC0
3F80
ENDCHAR
STARTCHAR char98
ENCODING 216
SWIDTH 625 0
DWIDTH 15 0
BBX 12 13 2 0
BITMAP
E000
E000
E780
EFE0
F8E0
E070
E070
E070
E070
E0E0
F0E0
FFC0
C780
ENDCHAR
STARTCHAR char98
ENCODING 217
SWIDTH 791 0
DWIDTH 19 0
BBX 17 13 2 0
BITMAP
E00380
E00380
E78380
EFE380
F8F380
E07380
E07380
E07380
E07380
E0E380
F0E380
FFC380
C78380
ENDCHAR
STARTCHAR char115
ENCODING 218
SWIDTH 458 0
DWIDTH 11 0
BBX 9 13 2 0
BITMAP
7E00
FF00
C380
0380
0780
3F00
3F00
0F80
0380
0380
8780
FF00
7E00
ENDCHAR
STARTCHAR char109
ENCODING 219
SWIDTH 916 0
DWIDTH 22 0
BBX 19 13 2 0
BITMAP
E0E0E0
E0E0E0
E0E0E0
E0E0E0
E0E0E0
E0E0E0
E0E0E0
E0E0E0
E0E0E0
E1E1E0
E3E3E0
7FFFE0
3C7CE0
ENDCHAR
STARTCHAR char99
ENCODING 220
SWIDTH 500 0
DWIDTH 12 0
BBX 10 13 1 0
BITMAP
FC00
FF00
8780
0380
01C0
3FC0
3FC0
01C0
01C0
0380
8780
FF00
7C00
ENDCHAR
STARTCHAR char109
ENCODING 221
SWIDTH 958 0
DWIDTH 23 0
BBX 21 15 2 -2
BITMAP
E0E0E0
E0E0E0
E0E0E0
E0E0E0
E0E0E0
E0E0E0
E0E0E0
E0E0E0
E0E0E0
E1E1E0
E3E3E0
7FFFF8
3C7CF8
000038
000038
ENDCHAR
STARTCHAR char110
ENCODING 222
SWIDTH 625 0
DWIDTH 15 0
BBX 11 13 2 0
BITMAP
E0E0
E0E0
E0E0
E0E0
E0E0
E0E0
E1E0
E3E0
7EE0
3CE0
00E0
00E0
00E0
ENDCHAR
STARTCHAR char98
ENCODING 223
SWIDTH 583 0
DWIDTH 14 0
BBX 14 13 0 0
BITMAP
F800
F800
F800
39E0
3BF8
3E3C
381C
381C
381C
3838
3C38
3FF0
31E0
ENDCHAR
STARTCHAR char79
ENCODING 224
SWIDTH 875 0
DWIDTH 21 0
BBX 21 17 0 0
BITMAP
E01F00
E07FC0
E0F1E0
E1E0F0
E1C070
E38038
E38038
E38038
FF8038
FF8038
E38038
E38038
E1C070
E1E0F0
E0F1E0
E07FC0
E01F00
ENDCHAR
STARTCHAR char65
ENCODING 225
SWIDTH 708 0
DWIDTH 17 0
BBX 16 17 0 0
BITMAP
03C0
03C0
03E0
07E0
07E0
0E70
0E70
0C78
1C38
1838
3FFC
3FFC
301E
700E
600E
E007
E007
ENDCHAR
STARTCHAR char66
ENCODING 226
SWIDTH 583 0
DWIDTH 14 0
BBX 11 17 2 0
BITMAP
FFC0
FFC0
E000
E000
E000
E000
FF00
FF80
E3C0
E1C0
E0E0
E0E0
E0E0
E0E0
E1E0
FFC0
FF00
ENDCHAR
STARTCHAR char72
ENCODING 227
SWIDTH 791 0
DWIDTH 19 0
BBX 17 20 2 -3
BITMAP
E01C00
E01C00
E01C00
E01C00
E01C00
E01C00
E01C00
E01C00
E01C00
E01C00
E01C00
E01C00
E01C00
E01C00
E01C00
FFFF80
FFFF80
000380
000380
000380
ENDCHAR
STARTCHAR char65
ENCODING 228
SWIDTH 833 0
DWIDTH 20 0
BBX 20 19 0 -2
BITMAP
00F000
00F000
00F800
01F800
01F800
039C00
039C00
031E00
070E00
060E00
0E0F00
0E0700
0C0780
1C0380
180380
FFFFF0
FFFFF0
E00070
C00030
ENDCHAR
STARTCHAR char69
ENCODING 229
SWIDTH 541 0
DWIDTH 13 0
BBX 11 17 2 0
BITMAP
FFC0
FFC0
E000
E000
E000
E000
E000
FF80
FF80
E000
E000
E000
E000
E000
E000
FFE0
FFE0
ENDCHAR
STARTCHAR char84
ENCODING 230
SWIDTH 750 0
DWIDTH 18 0
BBX 17 17 1 0
BITMAP
1FFC00
3FFE00
71C700
E1C380
E1C380
E1C380
E1C380
E1C380
71C700
3FFE00
1FFC00
01C000
01C000
01C000
01C000
01C000
01C000
ENDCHAR
STARTCHAR char70
ENCODING 231
SWIDTH 541 0
DWIDTH 13 0
BBX 10 17 2 0
BITMAP
FFC0
FFC0
E000
E000
E000
E000
E000
E000
E000
E000
E000
E000
E000
E000
E000
E000
E000
ENDCHAR
STARTCHAR char88
ENCODING 232
SWIDTH 625 0
DWIDTH 15 0
BBX 15 17 0 0
BITMAP
F01C
7818
7838
3C70
1C60
1EE0
0FC0
0780
0780
07C0
0FC0
0DE0
18F0
3870
7078
603C
E01E
ENDCHAR
STARTCHAR char78
ENCODING 233
SWIDTH 541 0
DWIDTH 13 0
BBX 13 17 2 0
BITMAP
C038
C078
C078
C0F8
C1F8
C1D8
C3D8
C798
C718
CF18
DE18
DC18
FC18
F818
F018
F018
E018
ENDCHAR
STARTCHAR char78
ENCODING 234
SWIDTH 541 0
DWIDTH 13 0
BBX 13 20 2 0
BITMAP
0D80
0F80
0700
C038
C078
C078
C0F8
C1F8
C1D8
C3D8
C798
C718
CF18
DE18
DC18
FC18
F818
F018
F018
E018
ENDCHAR
STARTCHAR char75
ENCODING 235
SWIDTH 666 0
DWIDTH 16 0
BBX 14 17 2 0
BITMAP
E038
E070
E0E0
E1C0
E380
E300
E700
EE00
FC00
FE00
EF00
E780
E3C0
E1E0
E0F0
E078
E03C
ENDCHAR
STARTCHAR char65
ENCODING 236
SWIDTH 708 0
DWIDTH 17 0
BBX 16 17 0 0
BITMAP
03C0
03C0
03E0
07E0
07E0
0E70
0E70
0C78
1C38
1838
383C
381C
301E
700E
600E
E007
E007
ENDCHAR
STARTCHAR char77
ENCODING 237
SWIDTH 875 0
DWIDTH 21 0
BBX 17 17 2 0
BITMAP
F00780
F00780
F80F80
F80F80
D80F80
DC1B80
DC1B80
CE3B80
CE3380
CE3380
C77380
C76380
C7E380
C3C380
C3C380
C1C380
C00380
ENDCHAR
STARTCHAR char72
ENCODING 238
SWIDTH 750 0
DWIDTH 18 0
BBX 14 17 2 0
BITMAP
E01C
E01C
E01C
E01C
E01C
E01C
E01C
FFFC
FFFC
E01C
E01C
E01C
E01C
E01C
E01C
E01C
E01C
ENDCHAR
STARTCHAR char79
ENCODING 239
SWIDTH 791 0
DWIDTH 19 0
BBX 17 17 1 0
BITMAP
07F000
1FFC00
3C1E00
780F00
700700
E00380
E00380
E00380
E00380
E00380
E00380
E00380
700700
780F00
3C1E00
1FFC00
07F000
ENDCHAR
STARTCHAR char72
ENCODING 240
SWIDTH 750 0
DWIDTH 18 0
BBX 14 17 2 0
BITMAP
FFFC
FFFC
E01C
E01C
E01C
E01C
E01C
E01C
E01C
E01C
E01C
E01C
E01C
E01C
E01C
E01C
E01C
ENDCHAR
STARTCHAR char82
ENCODING 241
SWIDTH 625 0
DWIDTH 15 0
BBX 13 17 2 0
BITMAP
0FF8
1FF8
3C38
3838
3838
3838
3838
1E38
0FF8
07F8
0F38
1E38
1C38
3838
7838
7038
E038
ENDCHAR
STARTCHAR char80
ENCODING 242
SWIDTH 541 0
DWIDTH 13 0
BBX 11 17 2 0
BITMAP
FF80
FFC0
E1E0
E0E0
E0E0
E0E0
E1E0
E3C0
FF80
FE00
E000
E000
E000
E000
E000
E000
E000
ENDCHAR
STARTCHAR char67
ENCODING 243
SWIDTH 708 0
DWIDTH 17 0
BBX 14 17 1 0
BITMAP
07F8
1FFC
3C0C
7800
7000
E000
E000
E000
E000
E000
E000
F000
7000
7804
3C0C
1FFC
07F0
ENDCHAR
STARTCHAR char84
ENCODING 244
SWIDTH 625 0
DWIDTH 15 0
BBX 15 17 0 0
BITMAP
FFFE
FFFE
0380
0380
0380
0380
0380
0380
0380
0380
0380
0380
0380
0380
0380
0380
0380
ENDCHAR
STARTCHAR char65
ENCODING 245
SWIDTH 625 0
DWIDTH 15 0
BBX 12 17 3 0
BITMAP
E070
E070
60F0
70E0
31E0
39C0
39C0
1F80
1F80
0F80
0700
0F00
0F00
0E00
1E00
1C00
3C00
ENDCHAR
STARTCHAR char88
ENCODING 246
SWIDTH 750 0
DWIDTH 18 0
BBX 18 17 0 0
BITMAP
F1C380
79C300
79C700
3DCE00
1DCC00
1FDC00
0FF800
07F000
07F800
07F800
0FFC00
0DFC00
19DE00
39CE00
71CF00
61C780
E1C3C0
ENDCHAR
STARTCHAR char66
ENCODING 247
SWIDTH 583 0
DWIDTH 14 0
BBX 11 17 2 0
BITMAP
FF00
FF80
E3C0
E1C0
E1C0
E1C0
E380
FF00
FF00
E3C0
E1C0
E0E0
E0E0
E0E0
E1E0
FFC0
FF00
ENDCHAR
STARTCHAR char80
ENCODING 248
SWIDTH 541 0
DWIDTH 13 0
BBX 11 17 2 0
BITMAP
E000
E000
E000
E000
E000
E000
FE00
FF80
E3C0
E1E0
E0E0
E0E0
E0E0
E0E0
E1E0
FFC0
FF80
ENDCHAR
STARTCHAR char80
ENCODING 249
SWIDTH 750 0
DWIDTH 18 0
BBX 16 17 1 0
BITMAP
E007
E007
E007
E007
E007
E007
FE07
FF87
E3C7
E1E7
E0E7
E0E7
E0E7
E0E7
E1E7
FFC7
FF87
ENDCHAR
STARTCHAR char66
ENCODING 250
SWIDTH 625 0
DWIDTH 15 0
BBX 14 17 1 0
BITMAP
3FE0
7FF0
F078
E038
0038
0038
0070
03E0
03E0
0078
0038
001C
001C
E01C
F03C
7FF8
3FE0
ENDCHAR
STARTCHAR char72
ENCODING 251
SWIDTH 791 0
DWIDTH 19 0
BBX 17 17 2 0
BITMAP
E1C380
E1C380
E1C380
E1C380
E1C380
E1C380
E1C380
E1C380
E1C380
E1C380
E1C380
E1C380
E1C380
E1C380
E1C380
FFFF80
FFFF80
ENDCHAR
STARTCHAR char67
ENCODING 252
SWIDTH 708 0
DWIDTH 17 0
BBX 14 17 1 0
BITMAP
7F80
FFE0
C0F0
0078
0038
001C
001C
0FFC
0FFC
001C
001C
003C
0038
8078
C0F0
FFE0
3F80
ENDCHAR
STARTCHAR char72
ENCODING 253
SWIDTH 916 0
DWIDTH 22 0
BBX 20 19 2 -2
BITMAP
E1C380
E1C380
E1C380
E1C380
E1C380
E1C380
E1C380
E1C380
E1C380
E1C380
E1C380
E1C380
E1C380
E1C380
E1C380
FFFFF0
FFFFF0
000070
000070
ENDCHAR
STARTCHAR char80
ENCODING 254
SWIDTH 541 0
DWIDTH 13 0
BBX 11 17 2 0
BITMAP
E0E0
E0E0
E0E0
E0E0
E0E0
E0E0
E0E0
E0E0
F0E0
78E0
3FE0
0FE0
00E0
00E0
00E0
00E0
00E0
ENDCHAR
STARTCHAR char80
ENCODING 255
SWIDTH 541 0
DWIDTH 13 0
BBX 13 17 0 0
BITMAP
F800
F800
3800
3800
3800
3800
3F80
3FE0
38F0
3878
3838
3838
3838
3838
3878
3FF0
3FE0
ENDCHAR
ENDFONT
